<?xml version="1.0" encoding="UTF-8" standalone="no"?>
<!-- Created with Inkscape (http://www.inkscape.org/) -->

<svg
   version="1.1"
   id="svg9"
   width="1093.3333"
   height="1778.6667"
   viewBox="0 0 1093.3333 1778.6667"
   sodipodi:docname="bellysvg2.svg"
   inkscape:version="1.2.1 (9c6d41e410, 2022-07-14)"
   xmlns:inkscape="http://www.inkscape.org/namespaces/inkscape"
   xmlns:sodipodi="http://sodipodi.sourceforge.net/DTD/sodipodi-0.dtd"
   xmlns="http://www.w3.org/2000/svg"
   xmlns:svg="http://www.w3.org/2000/svg">
  <defs
     id="defs13" />
  <sodipodi:namedview
     id="namedview11"
     pagecolor="#ffffff"
     bordercolor="#000000"
     borderopacity="0.25"
     inkscape:showpageshadow="2"
     inkscape:pageopacity="0.0"
     inkscape:pagecheckerboard="0"
     inkscape:deskcolor="#d1d1d1"
     showgrid="false"
     inkscape:zoom="0.33274832"
     inkscape:cx="3.0052744"
     inkscape:cy="979.71944"
     inkscape:window-width="1920"
     inkscape:window-height="1017"
     inkscape:window-x="-8"
     inkscape:window-y="-8"
     inkscape:window-maximized="1"
     inkscape:current-layer="g15" />
  <g
     inkscape:groupmode="layer"
     inkscape:label="Image"
     id="g15">
    <path
       style="display:inline;fill:#000000;stroke-width:1.34974"
       d="m 460.82991,1764.5183 c -6.68125,-0.6304 -15.18466,-1.8456 -18.89647,-2.7006 -3.71179,-0.8548 -9.17827,-1.8685 -12.1477,-2.253 -2.96946,-0.3844 -5.97602,-1.2444 -6.68127,-1.9104 -0.70524,-0.6664 -2.83108,-1.2385 -4.7241,-1.2712 -1.89302,-0.032 -6.29751,-0.8131 -9.78775,-1.7342 -3.49024,-0.921 -6.78025,-2.1091 -7.31114,-2.6399 -0.53087,-0.5309 -2.38244,-0.9653 -4.11463,-0.9653 -1.73217,0 -3.1494,-0.6074 -3.1494,-1.3498 0,-0.7423 -1.48261,-1.3498 -3.29472,-1.3498 -1.81208,0 -3.67008,-0.6072 -4.12888,-1.3497 -0.45882,-0.7423 -2.02138,-1.3497 -3.47236,-1.3497 -1.45099,0 -3.69283,-0.5115 -4.98188,-1.1369 -1.28907,-0.6254 -5.07698,-2.362 -8.41761,-3.8594 -3.34061,-1.4973 -9.11078,-4.1509 -12.82258,-5.8967 -3.71183,-1.7456 -9.28773,-4.8681 -12.39093,-6.9387 -3.10318,-2.0703 -6.29198,-3.7642 -7.08617,-3.7642 -0.79419,0 -1.44398,-0.6075 -1.44398,-1.3498 0,-0.7424 -0.79656,-1.3496 -1.77011,-1.3496 -0.97358,0 -3.08784,-1.2278 -4.69835,-2.7281 -1.61057,-1.5005 -4.70823,-3.0842 -6.88371,-3.5194 -2.31198,-0.4623 -4.23302,-1.8525 -4.62349,-3.3458 -0.36744,-1.4051 -1.63602,-2.5545 -2.81906,-2.5545 -1.18303,0 -2.15099,-0.9113 -2.15099,-2.0246 0,-1.1136 -0.58148,-2.0246 -1.29223,-2.0246 -0.7107,0 -5.04712,-3.4924 -9.63646,-7.7611 -4.58936,-4.2687 -9.87843,-9.4315 -11.75349,-11.473 -1.87508,-2.0415 -4.2199,-3.7117 -5.21075,-3.7117 -0.9908,0 -1.80149,-0.7862 -1.80149,-1.7468 0,-0.9609 -2.42955,-4.3525 -5.39898,-7.537 -2.96945,-3.1842 -5.399,-6.2518 -5.399,-6.8164 0,-0.5646 -1.51771,-2.7914 -3.37272,-4.9483 -1.85501,-2.1571 -3.37344,-4.6811 -3.37437,-5.609 -9e-4,-0.9278 -0.5681,-1.6871 -1.26043,-1.6871 -0.69234,0 -1.64321,-1.2111 -2.11303,-2.6916 -0.46984,-1.4802 -1.59309,-3.4544 -2.49608,-4.3866 -0.90302,-0.9323 -3.84777,-6.2506 -6.54389,-11.8185 -2.69613,-5.5674 -5.93155,-13.7673 -7.18983,-18.2214 -1.25826,-4.4543 -2.78413,-9.0811 -3.39085,-10.2822 -0.60671,-1.201 -1.84095,-7.2298 -2.74273,-13.3973 -1.09586,-7.4945 -1.28849,-15.9465 -0.58086,-25.486 0.58233,-7.8497 1.14718,-16.705 1.25528,-19.6779 0.10806,-2.9728 0.62237,-6.0941 1.14285,-6.9361 0.52046,-0.8424 1.91905,-6.0024 3.1079,-11.4668 1.1889,-5.4643 2.46992,-12.0613 2.84673,-14.6595 0.37683,-2.5984 1.5358,-5.6832 2.57547,-6.8551 1.03969,-1.172 1.89035,-3.1298 1.89035,-4.3505 0,-1.2211 1.16365,-4.8174 2.5859,-7.9924 1.4222,-3.1747 3.52054,-7.8983 4.66297,-10.4965 1.18246,-2.6895 1.52209,-4.9181 0.78848,-5.174 -0.70872,-0.2474 -1.28859,-1.6141 -1.28859,-3.0369 0,-1.8371 0.94719,-2.5872 3.2671,-2.5872 2.54868,0 3.46711,-0.9105 4.17653,-4.1404 0.50015,-2.2772 1.76319,-4.468 2.80674,-4.8685 1.04353,-0.4003 1.89733,-1.4363 1.89733,-2.3018 0,-0.8653 2.12587,-4.8014 4.72412,-8.7466 2.59827,-3.9452 4.72411,-7.51 4.72411,-7.9215 0,-0.4118 1.67032,-2.3595 3.7118,-4.3288 2.0415,-1.9691 5.23028,-5.6341 7.08618,-8.1444 1.85591,-2.51 6.19756,-7.3421 9.64812,-10.7379 3.45059,-3.3957 7.89015,-7.3494 9.8657,-8.7854 1.97556,-1.4363 5.22624,-4.0169 7.22371,-5.7349 1.99749,-1.718 4.39099,-3.1241 5.31895,-3.1251 0.92796,0 1.68719,-0.5067 1.68719,-1.1233 0,-0.617 1.6703,-1.9828 3.7118,-3.0348 2.04149,-1.0522 4.0155,-2.226 4.38668,-2.6085 0.37117,-0.3823 3.7118,-2.1201 7.42361,-3.8616 3.71179,-1.7416 7.80341,-3.7072 9.09248,-4.3684 1.28905,-0.6611 3.51613,-1.202 4.94906,-1.202 1.43292,0 2.8078,-0.6075 3.05526,-1.3496 0.24745,-0.7425 4.70162,-2.2929 9.89812,-3.4457 5.19654,-1.1528 13.09255,-2.6004 17.54673,-3.217 4.45415,-0.6168 17.53605,-0.9813 29.07084,-0.8107 16.47473,0.2442 23.85597,0.9899 34.41854,3.478 7.39539,1.7422 13.64864,3.6576 13.8961,4.2562 0.24746,0.5988 1.91777,1.0888 3.7118,1.0888 1.79403,0 3.26188,0.4938 3.26188,1.0978 0,0.6038 2.12586,1.9319 4.72413,2.9514 2.59825,1.0194 4.72411,2.3476 4.72411,2.9514 0,0.6039 0.88392,1.0978 1.96426,1.0978 1.08034,0 5.18019,3.2099 9.11078,7.1328 3.9306,3.9231 7.90722,8.3268 8.83694,9.7857 0.92971,1.459 2.30888,4.1713 3.06478,6.0271 0.75591,1.856 2.12108,4.8369 3.03372,6.6241 1.0789,2.1128 1.63592,9.5487 1.59241,21.2579 -0.0451,12.1293 -0.59587,18.5374 -1.68717,19.6287 -0.89115,0.891 -1.62028,3.0172 -1.62028,4.7246 0,1.7073 -0.60739,3.1044 -1.34975,3.1044 -0.74237,0 -1.34975,1.2149 -1.34975,2.6995 0,1.4846 -0.56647,2.6995 -1.2588,2.6995 -0.69234,0 -1.67594,1.3143 -2.1858,2.9208 -0.50983,1.6063 -4.35349,6.3135 -8.54142,10.4606 -4.1879,4.1469 -9.12632,8.405 -10.97422,9.4626 -1.84791,1.0576 -5.63751,3.0316 -8.42137,4.3867 -2.78384,1.3551 -7.54851,3.6785 -10.58809,5.1633 -3.0396,1.4847 -6.38845,2.6995 -7.44194,2.6995 -1.05345,0 -3.1219,0.6073 -4.59654,1.3498 -1.47467,0.7422 -3.88771,1.9569 -5.36237,2.6996 -1.47465,0.7421 -3.60049,1.3496 -4.72411,1.3496 -1.1236,0 -2.04293,0.6073 -2.04293,1.3496 0,0.7424 -0.84612,1.3497 -1.88022,1.3497 -1.03412,0 -2.2298,0.9112 -2.65713,2.0248 -0.42731,1.1135 -1.61463,2.0243 -2.63851,2.0243 -1.02388,0 -5.25881,3.3974 -9.41097,7.5496 -4.22201,4.2221 -7.92919,9.2786 -8.41111,11.473 -0.47396,2.158 -1.35006,3.9232 -1.94688,3.9232 -0.59685,0 -1.37542,1.5187 -1.73022,3.3747 -0.35477,1.8555 -0.12172,3.3741 0.51753,3.3741 0.63941,0 1.16257,0.6075 1.16257,1.3497 0,0.7425 -0.79894,1.3498 -1.77542,1.3498 -1.17324,0 -2.2583,3.319 -3.19903,9.7858 -1.15661,7.9504 -1.07677,10.0667 0.42569,11.2841 1.01711,0.8241 1.85301,3.2538 1.85758,5.3989 0.003,2.1452 0.86455,5.5419 1.91106,7.5477 1.04652,2.006 2.71309,4.6167 3.7035,5.8017 0.9904,1.1847 3.07662,3.4914 4.63604,5.1259 1.55939,1.6346 4.57634,4.3386 6.70427,6.009 2.12794,1.6702 5.2556,3.0369 6.95037,3.0369 1.69476,0 3.08612,0.7591 3.09191,1.687 0.006,0.9282 1.64535,2.4467 3.64347,3.3745 1.9981,0.9279 4.62538,1.6873 5.83836,1.6873 1.213,0 2.65924,0.4536 3.21387,1.0083 0.55462,0.5546 5.97046,1.7437 12.03525,2.6423 6.06475,0.8985 14.97483,1.6511 19.80016,1.6722 4.82535,0.021 15.60085,-1.3444 23.94557,-3.0348 8.34471,-1.6903 15.90668,-3.8075 16.80437,-4.7052 0.89766,-0.8978 2.41755,-1.632 3.37753,-1.632 0.95999,0 4.17913,-1.0547 7.15365,-2.3433 2.97453,-1.2886 5.40825,-2.8071 5.40825,-3.3742 0,-0.5674 0.75923,-1.0321 1.68718,-1.0329 0.92796,0 3.32149,-1.4074 5.31897,-3.1254 1.99746,-1.718 5.18624,-4.291 7.08617,-5.7176 1.9239,-1.4449 3.45439,-3.9474 3.45439,-5.648 0,-1.9919 0.80976,-3.0542 2.32778,-3.0542 1.28026,0 4.3172,-2.2361 6.74873,-4.9695 2.43153,-2.733 4.42094,-5.4349 4.42094,-6.0041 0,-0.5693 1.51848,-2.6734 3.37439,-4.6762 1.8559,-2.0026 3.37437,-4.4125 3.37437,-5.356 0,-0.9431 0.5611,-1.9175 1.24691,-2.165 0.6858,-0.2473 4.3301,-6.6636 8.09847,-14.2584 3.76837,-7.5947 6.85158,-14.4877 6.85158,-15.3181 0,-0.8302 0.89949,-3.4233 1.9989,-5.7626 1.09942,-2.3395 3.22527,-7.8407 4.72412,-12.2256 1.49886,-4.3849 2.72519,-9.649 2.72519,-11.6979 0,-2.049 0.60515,-3.9279 1.34478,-4.1754 0.73964,-0.2473 3.49131,-8.9533 6.11483,-19.3464 2.62352,-10.393 5.76696,-24.0591 6.98544,-30.3693 1.21848,-6.31 2.26297,-13.9024 2.32112,-16.8718 0.0582,-2.9695 0.79931,-6.0063 1.64708,-6.7487 0.84776,-0.7423 1.88438,-5.6015 2.30364,-10.798 0.41921,-5.1966 1.40424,-13.6999 2.18894,-18.8965 0.78466,-5.1964 2.02427,-14.3074 2.75465,-20.2463 0.73038,-5.9387 1.71911,-16.3616 2.19717,-23.1621 0.86922,-12.3641 0.86922,-12.3641 -6.40804,-13.0807 -4.00249,-0.3938 -18.18471,-1.7397 -31.51604,-2.9903 -17.67784,-1.6584 -24.37589,-1.8628 -24.74536,-0.7542 -0.27863,0.8358 -1.06333,1.5196 -1.74383,1.5196 -0.6805,0 -1.23727,-0.8357 -1.23727,-1.8574 0,-1.2635 -2.48199,-2.1277 -7.76106,-2.7027 -4.26859,-0.4649 -12.01273,-1.2247 -17.20925,-1.6886 -5.19654,-0.4636 -10.05563,-1.2768 -10.79799,-1.8066 -0.74236,-0.5299 -6.16411,-1.0903 -12.04836,-1.2456 -5.88425,-0.1547 -11.17948,-0.5794 -11.76722,-0.9427 -0.58772,-0.3632 -7.00998,-1.2207 -14.27169,-1.9056 -7.2617,-0.6848 -18.97327,-1.9176 -26.0257,-2.7398 -7.05243,-0.8221 -17.6817,-2.0769 -23.62056,-2.7885 -5.9389,-0.7115 -17.78292,-1.8978 -26.32008,-2.6363 -8.53715,-0.7388 -19.1664,-1.7984 -23.62055,-2.3553 -5.82042,-0.7275 -9.14261,-0.5013 -11.81029,0.8043 -2.04149,0.999 -3.71181,2.702 -3.71181,3.7846 0,1.0823 -0.88796,2.3086 -1.97324,2.7252 -1.08528,0.4163 -2.36024,1.9766 -2.83324,3.4668 -0.47302,1.4904 -6.81463,8.7231 -14.09246,16.0724 -7.27784,7.3494 -13.74706,13.3654 -14.37602,13.3689 -0.62897,0 -3.08464,1.8255 -5.45706,4.0489 -2.37241,2.2239 -4.83926,4.0433 -5.4819,4.0433 -0.64264,0 -2.37906,1.0628 -3.85869,2.362 -1.47963,1.2993 -3.87186,3.1026 -5.31605,4.008 -1.4442,0.9052 -5.5109,3.0274 -9.03713,4.7161 -3.5262,1.6887 -6.4113,3.5295 -6.4113,4.0904 0,0.5613 -1.51846,1.0204 -3.37436,1.0204 -1.85589,0 -3.37436,0.6074 -3.37436,1.3498 0,0.7423 -1.21478,1.3498 -2.6995,1.3498 -1.48472,0 -2.69949,0.6072 -2.69949,1.3496 0,0.7424 -1.51847,1.3498 -3.37437,1.3498 -1.85589,0 -3.37437,0.6074 -3.37437,1.3498 0,0.7423 -1.22301,1.3496 -2.7178,1.3496 -1.49479,0 -3.77249,0.533 -5.06156,1.1841 -1.28906,0.6512 -4.51271,1.866 -7.16368,2.6994 -2.65099,0.8336 -6.1076,1.5155 -7.68139,1.5155 -1.57379,0 -3.23681,0.6075 -3.69562,1.3498 -0.45881,0.7424 -2.93244,1.3498 -5.49698,1.3498 -2.56452,0 -5.71745,0.5433 -7.00649,1.207 -1.28907,0.6639 -6.89914,1.9101 -12.46686,2.7688 -5.56771,0.8591 -20.44866,1.9076 -33.06879,2.33 -12.69519,0.4251 -30.18135,0.1157 -39.14265,-0.6921 -8.90832,-0.8033 -22.25528,-3.0173 -29.65987,-4.9199 -7.40461,-1.9025 -14.05547,-4.0517 -14.77974,-4.7759 -0.72425,-0.7244 -2.29308,-1.3169 -3.48631,-1.3169 -1.19321,0 -6.38637,-2.1274 -11.540329,-4.7276 -5.153966,-2.5999 -10.02182,-4.4826 -10.817458,-4.1839 -0.795638,0.2991 -2.167399,-0.6107 -3.04837,-2.0212 -0.880959,-1.4106 -2.507677,-2.5648 -3.614932,-2.5648 -1.107255,0 -2.01318,-0.4765 -2.01318,-1.0588 0,-0.5823 -1.670317,-2.0631 -3.711801,-3.2906 -2.041496,-1.2274 -5.457468,-3.6361 -7.591053,-5.3526 -2.133586,-1.7162 -5.69028,-4.791 -7.903769,-6.8324 -2.213517,-2.0414 -4.567716,-3.7118 -5.231558,-3.7118 -0.663868,0 -1.206999,-0.6108 -1.206999,-1.3573 0,-0.7466 -3.492472,-5.0457 -7.761046,-9.5535 -4.268576,-4.5079 -8.07763,-8.9077 -8.464555,-9.7779 -0.386912,-0.8702 -2.117229,-3.8599 -3.845122,-6.6437 -1.727905,-2.7838 -3.992717,-5.0616 -5.032928,-5.0616 -1.040224,0 -1.891303,-1.145 -1.891303,-2.5444 0,-1.3996 -2.277699,-7.4608 -5.061551,-13.4696 -2.783851,-6.0087 -5.805586,-10.9377 -6.714981,-10.9529 -1.099083,-0.018 -1.392886,-1.3306 -0.876337,-3.9134 0.44189,-2.2095 0.13618,-4.2818 -0.708621,-4.804 -0.817134,-0.5049 -1.485717,-2.2792 -1.485717,-3.9429 0,-1.6636 -0.514098,-3.6019 -1.142458,-4.307 -0.628346,-0.7053 -2.1853575,-6.1415 -3.4599975,-12.0803 -1.2746642,-5.9388 -2.7513748,-11.7089 -3.2816193,-12.8225 -0.5302172,-1.1135 -1.1550138,-8.9216 -1.3884226,-17.351 -0.309245,-11.1676 0.2256736,-18.1266 1.9712605,-25.6453 1.3176046,-5.6753 2.7434157,-10.6223 3.1684722,-10.9937 0.4250294,-0.3711 1.5689313,-3.1043 2.5419927,-6.0738 0.973075,-2.9696 2.487333,-6.9174 3.365021,-8.7732 0.877714,-1.856 1.967578,-3.6781 2.421944,-4.0493 0.45438,-0.3712 1.821956,-2.6187 3.039086,-4.9945 1.217131,-2.376 2.212946,-6.1721 2.212946,-8.4362 0,-3.3652 0.554006,-4.1182 3.036928,-4.128 1.920349,0 6.262616,-3.2161 11.810278,-8.7267 4.825348,-4.7931 9.532608,-8.7357 10.460558,-8.7614 0.927951,-0.025 1.687179,-0.5661 1.687179,-1.201 0,-0.6348 5.010915,-3.6767 11.135405,-6.7598 6.124474,-3.0832 12.198342,-5.6007 13.49747,-5.5945 1.299129,0.013 2.362054,-0.4726 2.362054,-1.0639 0,-0.5912 4.262971,-1.8061 9.473283,-2.6993 5.210299,-0.8935 17.13733,-1.6247 26.50452,-1.6247 9.36719,0 22.56655,0.6703 29.33194,1.4897 6.76539,0.8192 13.51546,1.9856 15.00019,2.5918 1.48473,0.6063 5.07688,1.4324 7.98256,1.836 4.22989,0.5872 5.76367,0.1795 7.69364,-2.0459 2.41053,-2.7794 2.41053,-2.7794 5.69054,0.5007 1.80401,1.804 3.69746,4.5952 4.20763,6.2026 0.52967,1.6688 2.04664,2.9226 3.53614,2.9226 1.43469,0 2.60855,0.4592 2.60855,1.0203 0,0.5611 1.67031,1.7654 3.7118,2.6764 2.04148,0.9109 6.44504,4.2854 9.78567,7.4991 3.3406,3.2136 7.0897,7.1241 8.33127,8.6898 1.24158,1.5657 3.00282,4.2614 3.91386,5.9902 0.91106,1.729 2.08274,3.4475 2.60375,3.8187 0.521,0.3711 2.21308,4.6228 3.76017,9.4483 1.54708,4.8253 3.50849,14.2397 4.35866,20.9209 1.29568,10.1823 1.21245,13.3489 -0.51445,19.5713 -1.13315,4.0831 -2.7498,9.7759 -3.59259,12.651 -0.84277,2.8748 -3.00166,6.5888 -4.79752,8.2532 -1.79585,1.6644 -3.2652,3.5847 -3.2652,4.2675 0,0.6826 -1.764,2.2833 -3.92005,3.557 -2.15603,1.2736 -5.14233,2.3157 -6.63624,2.3157 -1.49391,0 -2.96271,0.7395 -3.26403,1.6433 -0.36731,1.1021 -3.26226,1.5362 -8.78661,1.3181 -4.53195,-0.1782 -8.62291,0.2962 -9.09253,1.0562 -0.46957,0.7597 -1.96771,1.3812 -3.32921,1.3812 -1.36146,0 -2.82503,0.911 -3.25234,2.0246 -0.42731,1.1136 -1.70706,2.0246 -2.84391,2.0246 -1.13684,0 -2.06696,0.9111 -2.06696,2.0248 0,1.1134 -0.4595,2.0246 -1.02112,2.0246 -0.56161,0 -1.77639,2.4199 -2.6995,5.3778 -0.9231,2.9577 -1.67837,7.3697 -1.67837,9.8046 0,2.4348 1.21759,7.7591 2.70574,11.8316 1.48818,4.0725 3.31033,7.6068 4.04924,7.8545 0.73893,0.2474 1.34351,1.2045 1.34351,2.1267 0,0.9221 1.40574,2.9975 3.1239,4.6117 1.71817,1.614 4.18356,2.9346 5.47867,2.9346 1.29508,0 1.97645,0.6122 1.51413,1.3603 -0.46235,0.748 0.0659,2.2665 1.17367,3.3743 1.10784,1.1078 2.66505,2.0143 3.46042,2.0143 0.79539,0 1.44617,0.6073 1.44617,1.3496 0,0.7425 1.21476,1.3498 2.69949,1.3498 1.48471,0 2.69948,0.4728 2.69948,1.0505 0,0.5779 3.79028,2.1759 8.42286,3.5511 4.63258,1.3752 13.136,2.6191 18.89646,2.7646 5.76047,0.1457 10.47359,-0.238 10.47359,-0.8516 0,-0.6135 1.15737,-1.1156 2.57194,-1.1156 1.41458,0 5.05888,-1.3275 8.09849,-2.9501 3.03959,-1.6224 5.52655,-3.4443 5.52655,-4.0491 0,-0.6047 0.75922,-1.1088 1.68715,-1.1201 0.92796,-0.018 4.62068,-3.2004 8.20603,-7.0864 3.58537,-3.8858 7.54483,-8.2799 8.79882,-9.7646 1.25399,-1.4846 3.76699,-4.8252 5.58447,-7.4235 1.81745,-2.5983 4.10448,-5.5477 5.08231,-6.5541 0.97779,-1.0063 4.49025,-5.9849 7.80545,-11.0636 3.31521,-5.0786 6.02766,-9.6601 6.02766,-10.181 0,-0.5213 1.91042,-4.9571 4.24542,-9.8576 2.33499,-4.9005 4.76454,-9.9646 5.399,-11.2538 0.63445,-1.2893 1.15354,-3.4455 1.15354,-4.7916 0,-1.3463 0.56837,-3.0249 1.26301,-3.7302 0.69464,-0.7052 2.6029,-6.1413 4.24059,-12.0802 1.6377,-5.9388 3.86061,-13.8349 4.93982,-17.5467 1.0792,-3.7118 2.50492,-9.1781 3.16823,-12.1477 0.66332,-2.9695 2.1056,-10.2581 3.20505,-16.197 1.09947,-5.9389 2.98893,-15.9609 4.19882,-22.2707 1.20989,-6.3103 2.70099,-15.4209 3.31359,-20.2463 0.61259,-4.8253 1.74652,-13.6324 2.51986,-19.5713 0.77333,-5.939 2.32317,-21.4273 3.44412,-34.4185 1.12094,-12.9914 2.78414,-30.3019 3.69601,-38.4679 1.12558,-10.0797 1.67738,-41.7179 1.71856,-98.5315 0.0528,-72.79635 -0.26244,-86.49408 -2.42262,-105.28025 -1.3658,-11.87776 -3.03446,-26.45504 -3.70807,-32.39392 -0.67366,-5.93888 -1.98609,-14.74599 -2.91647,-19.57132 -0.93039,-4.82535 -2.14881,-9.4778 -2.70758,-10.33874 -0.55879,-0.86097 -0.67276,-2.45983 -0.25324,-3.55303 0.41949,-1.09321 -0.79101,-9.19588 -2.69004,-18.00594 -1.89902,-8.81008 -3.99122,-18.14417 -4.64933,-20.74243 -0.65812,-2.59826 -2.4568,-9.32406 -3.99707,-14.94622 -1.54027,-5.62215 -3.47166,-11.98733 -4.29194,-14.14487 -0.82029,-2.15752 -2.21267,-4.39068 -3.09419,-4.96256 -1.20695,-0.78301 -1.21715,-1.29023 -0.0413,-2.05407 1.12337,-0.7297 0.26015,-4.80073 -3.07661,-14.50976 -2.55097,-7.42252 -5.37591,-15.16581 -6.27767,-17.2073 -0.90169,-2.0415 -2.40229,-3.71182 -3.3346,-3.71182 -1.03194,0 -1.69517,-1.81709 -1.69517,-4.64445 0,-2.55444 -0.60737,-5.01983 -1.34974,-5.47864 -0.74234,-0.45882 -1.34974,-2.02464 -1.34974,-3.47962 0,-1.455 -3.18878,-9.06996 -7.08617,-16.92216 -3.89739,-7.85222 -8.51176,-17.10335 -10.25414,-20.55806 -1.74238,-3.45473 -3.71638,-6.48377 -4.38667,-6.73122 -0.6703,-0.24746 -1.21871,-1.6141 -1.21871,-3.03692 0,-1.42286 -0.60739,-2.58704 -1.34974,-2.58704 -0.74237,0 -1.34975,-0.79654 -1.34975,-1.7701 0,-0.97356 -1.21478,-3.07402 -2.69951,-4.66767 -1.4847,-1.59367 -2.69948,-3.53035 -2.69948,-4.30377 0,-0.77338 -0.60739,-1.40616 -1.34975,-1.40616 -0.74237,0 -1.34974,-0.93015 -1.34974,-2.06699 0,-1.13685 -0.91108,-2.4166 -2.02463,-2.8439 -1.11352,-0.42732 -2.02461,-1.29234 -2.02461,-1.92232 0,-0.62998 -1.52515,-3.45008 -3.38927,-6.2669 -1.86407,-2.81681 -4.74918,-6.82357 -6.41128,-8.90388 -1.66213,-2.08031 -4.69235,-5.61953 -6.73384,-7.86489 -2.0415,-2.24535 -3.71183,-4.33249 -3.71183,-4.63809 0,-0.30557 -1.04605,-1.77731 -2.32456,-3.27053 -1.27853,-1.4932 -3.40439,-2.71492 -4.72411,-2.71492 -1.50316,0 -2.39956,-1.0128 -2.39956,-2.71118 0,-1.49115 -1.61884,-4.52807 -3.59747,-6.74873 -1.97861,-2.22067 -4.40813,-4.03756 -5.39898,-4.03756 -0.99082,0 -1.8015,-0.688 -1.8015,-1.52887 0,-0.84088 -1.3077,-2.66303 -2.90605,-4.04922 -1.5983,-1.38623 -4.02785,-2.5204 -5.39897,-2.5204 -1.37111,0 -2.49297,-0.87282 -2.49297,-1.9396 0,-1.0668 -2.2777,-4.09846 -5.06154,-6.73704 -2.78385,-2.63859 -5.82079,-4.80269 -6.74875,-4.80912 -0.92795,-0.007 -1.68718,-0.87453 -1.68718,-1.92907 0,-1.05455 -1.71099,-2.29318 -3.8022,-2.75248 -2.09123,-0.45932 -5.78488,-2.93711 -8.20814,-5.50624 -2.42325,-2.56914 -5.26766,-4.67113 -6.3209,-4.67113 -1.05322,0 -1.91495,-0.57986 -1.91495,-1.28858 0,-0.70872 -2.12586,-1.68742 -4.72411,-2.17483 -2.59827,-0.48745 -4.72411,-1.68149 -4.72411,-2.65342 0,-0.97196 -1.8152,-2.16584 -4.03376,-2.65312 -2.21859,-0.48727 -4.38027,-1.44662 -4.8038,-2.13188 -0.4235,-0.68523 -2.25262,-1.24589 -4.06471,-1.24589 -1.81207,0 -3.29469,-0.4905 -3.29469,-1.08999 0,-0.59949 -2.32997,-2.11796 -5.17765,-3.37436 -2.84771,-1.2564 -6.08711,-2.28437 -7.19865,-2.28437 -1.11158,0 -2.46708,-0.44607 -3.01227,-0.99127 -0.54519,-0.54521 -4.44259,-1.72096 -8.66088,-2.61283 -4.21828,-0.89187 -11.4372,-1.66057 -16.04202,-1.70826 -4.604824,-0.0477 -10.071307,-0.77938 -12.147716,-1.62606 -2.076422,-0.84668 -5.61937,-2.33199 -7.873201,-3.30067 -2.253846,-0.96866 -5.746318,-3.61127 -7.761047,-5.87249 -2.01473,-2.2612 -3.663155,-4.72391 -3.663155,-5.4727 0,-0.74879 -0.776989,-1.36143 -1.726648,-1.36143 -1.116035,0 -2.323988,-3.79635 -3.415826,-10.73525 -0.929036,-5.90439 -1.300969,-12.28195 -0.826523,-14.17236 0.474457,-1.8904 1.363257,-3.43708 1.975114,-3.43708 0.61187,0 1.522099,-1.2906 2.022742,-2.86801 0.554509,-1.7471 0.240759,-3.28179 -0.802817,-3.92673 -1.341351,-0.82902 -1.247155,-1.52468 0.434036,-3.20586 1.180894,-1.18092 3.448647,-2.14712 5.039419,-2.14712 1.590773,0 3.803387,0.91108 4.916933,2.02463 1.113533,1.11353 4.410781,2.0246 7.327197,2.0246 3.813571,0 5.302572,-0.56852 5.302572,-2.0246 0,-1.11355 0.347074,-2.02463 0.771282,-2.02463 0.424208,0 1.623167,0.85187 2.664342,1.89306 1.409732,1.40971 6.29609,1.93019 19.137506,2.03844 9.48443,0.0798 20.28134,0.71421 23.99315,1.40942 3.71178,0.69519 11.30412,2.00153 16.87182,2.90296 5.56772,0.90142 10.73049,2.06912 11.47284,2.59486 0.74237,0.52574 4.08299,1.29246 7.42362,1.7038 3.34061,0.41137 10.02186,1.65893 14.8472,2.7724 4.82535,1.11345 10.59551,2.64109 12.82261,3.39472 2.22708,0.75369 6.63062,2.01508 9.78565,2.80317 3.15506,0.78807 8.31783,2.09945 11.47284,2.91417 3.15503,0.81471 6.79113,2.02948 8.08018,2.69948 1.28906,0.67003 3.83459,1.2182 5.65676,1.2182 1.82218,0 3.64694,0.54029 4.05504,1.20062 0.40814,0.66034 2.72167,1.50922 5.14121,1.88642 2.41957,0.3772 8.3446,1.68687 13.16677,2.91034 4.82215,1.22349 9.34719,2.80413 10.05559,3.51256 0.70845,0.70841 2.9529,1.28804 4.98769,1.28804 2.03481,0 4.07503,0.6074 4.53383,1.34975 0.45881,0.74235 2.58466,1.34976 4.72411,1.34976 2.13946,0 4.21585,0.52738 4.61426,1.17195 0.39838,0.64461 4.49882,1.59906 9.11209,2.12098 4.61327,0.52192 9.0304,1.70761 9.81586,2.6348 0.78547,0.92723 4.76873,2.44463 8.85171,3.37203 4.08297,0.92742 8.63837,2.16712 10.1231,2.75492 1.48473,0.5878 4.86848,1.76026 7.51944,2.6055 2.65099,0.84523 6.1076,1.53676 7.68139,1.53676 1.57379,0 3.27271,0.66547 3.77539,1.47882 0.50268,0.81335 2.95067,1.24102 5.43998,0.95041 2.87452,-0.33558 4.77093,0.10991 5.1972,1.22068 0.36916,0.96201 2.10748,1.7491 3.86297,1.7491 1.75545,0 3.64649,0.45471 4.20227,1.0105 0.55576,0.55577 4.75686,1.68004 9.33574,2.49835 4.57888,0.81828 11.96956,2.51625 16.42374,3.77322 4.45414,1.25696 10.83169,2.91022 14.17232,3.67393 3.34062,0.76373 9.11079,1.89514 12.82259,2.51429 3.71181,0.61913 13.42999,2.08826 21.59597,3.26471 8.16596,1.17646 18.64338,2.14407 23.28312,2.15024 4.63977,0.007 8.43591,-0.48008 8.43591,-1.0805 0,-0.60044 -2.12585,-4.62203 -4.7241,-8.93688 -2.59828,-4.31483 -4.72412,-8.68267 -4.72412,-9.70627 0,-1.02361 -0.60738,-1.8611 -1.34974,-1.8611 -0.74237,0 -1.34975,-1.14978 -1.34975,-2.55508 0,-1.4053 -0.91109,-2.90469 -2.02462,-3.33202 -1.11355,-0.42729 -2.02463,-1.46838 -2.02463,-2.31349 0,-0.84512 -1.84012,-5.26773 -4.08919,-9.82802 -2.24908,-4.56029 -4.679,-9.20255 -5.39982,-10.31607 -0.72082,-1.11355 -1.94856,-3.54309 -2.72835,-5.399 -0.77977,-1.8559 -2.89898,-6.1076 -4.70934,-9.44823 -1.81039,-3.34062 -3.2979,-7.13677 -3.30555,-8.4359 -0.007,-1.29915 -0.62132,-2.36206 -1.3637,-2.36206 -0.74234,0 -1.34974,-0.91932 -1.34974,-2.04296 0,-1.12359 -0.58288,-3.09758 -1.2953,-4.38667 -0.71242,-1.28904 -3.18681,-6.59543 -5.49865,-11.79196 -2.31185,-5.19653 -5.37327,-12.04588 -6.8032,-15.22075 -1.42989,-3.1749 -2.59981,-6.39301 -2.59981,-7.15139 0,-0.75833 -1.07676,-3.62718 -2.3928,-6.37519 -1.31605,-2.74799 -3.82787,-9.55176 -5.58182,-15.11945 -1.75396,-5.5677 -3.71411,-11.17779 -4.35593,-12.46684 -0.6418,-1.28907 -1.16693,-3.53092 -1.16693,-4.9819 0,-1.45099 -0.60737,-3.01353 -1.34973,-3.47233 -0.74236,-0.45882 -1.34974,-2.88835 -1.34974,-5.39899 0,-2.51064 -0.54325,-4.90051 -1.20719,-5.31087 -0.66393,-0.41034 -1.55735,-3.02757 -1.98537,-5.81607 -0.42801,-2.78851 -1.35099,-8.71434 -2.05107,-13.16851 -0.70008,-4.45416 -1.91265,-12.35018 -2.69459,-17.5467 -0.78193,-5.19652 -1.40537,-17.95164 -1.3854,-28.3447 0.02,-10.39305 0.51119,-21.78152 1.09162,-25.30775 0.58041,-3.5262 0.54419,-6.4113 -0.0804,-6.4113 -0.62468,0 -1.13578,-1.21477 -1.13578,-2.69949 0,-1.4847 0.84212,-2.69949 1.87137,-2.69949 1.19597,0 2.21607,-2.29857 2.82646,-6.36899 0.63094,-4.20741 0.45391,-6.53602 -0.52162,-6.86122 -0.81221,-0.27072 -1.47673,-0.97815 -1.47673,-1.57204 0,-0.59394 1.2117,-1.39674 2.69266,-1.78403 1.48099,-0.38728 2.93586,-1.52105 3.23308,-2.51948 0.29725,-0.99842 1.61293,-5.45964 2.92375,-9.91381 1.31083,-4.45416 3.04472,-9.17994 3.85309,-10.50171 1.11779,-1.82774 1.01331,-2.68726 -0.43635,-3.5893 -1.61805,-1.00687 -1.58166,-1.51051 0.24103,-3.3332 1.18092,-1.1809 2.7979,-2.14711 3.59327,-2.14711 0.7954,0 1.44618,-0.91108 1.44618,-2.02462 0,-1.11355 0.60738,-2.02463 1.34973,-2.02463 0.74237,0 1.34975,-1.21476 1.34975,-2.69949 0,-1.48473 0.60739,-2.69949 1.34975,-2.69949 0.74237,0 1.34974,-1.16416 1.34974,-2.58702 0,-1.42286 0.47558,-2.78948 1.05683,-3.03694 0.58126,-0.24744 2.4034,-2.76233 4.04922,-5.58861 1.64585,-2.82629 2.99243,-5.95007 2.99243,-6.94175 0,-0.99169 0.91107,-2.15267 2.02462,-2.58 1.11355,-0.4273 2.02463,-1.70705 2.02463,-2.8439 0,-1.13684 -0.6074,-2.06696 -1.34975,-2.06696 -0.74237,0 -1.34974,-0.85076 -1.34974,-1.89055 0,-1.07471 2.18422,-2.40048 5.06154,-3.07223 3.14024,-0.73315 5.55137,-2.28407 6.35193,-4.08577 0.70968,-1.59721 7.23907,-8.82598 14.50977,-16.06392 7.27067,-7.2379 13.21941,-13.61846 13.21941,-14.17894 0,-0.5605 1.21478,-1.40467 2.69951,-1.87587 1.48471,-0.47123 2.69945,-1.42327 2.69945,-2.11559 0,-0.69234 0.67907,-1.25879 1.50901,-1.25879 0.82995,0 3.58436,-1.82218 6.12083,-4.04924 2.53653,-2.227085 5.19807,-4.049232 5.91463,-4.049232 0.71653,0 1.30278,-0.911098 1.30278,-2.024631 0,-1.113542 -0.60739,-2.02462 -1.34975,-2.02462 -0.74236,0 -1.34976,-1.822157 -1.34976,-4.049242 0,-3.824278 0.29994,-4.049236 5.399,-4.049236 4.41078,0 5.39898,0.470962 5.39898,2.573119 0,1.908608 0.69717,2.390817 2.69951,1.867193 1.48471,-0.388261 2.69948,-1.242478 2.69948,-1.898237 0,-0.655788 1.21477,-1.192326 2.69949,-1.192326 1.48472,0 2.6995,-0.607393 2.6995,-1.349749 0,-0.742368 0.8809,-1.349748 1.95755,-1.349748 1.07667,0 2.44326,-0.764394 3.03693,-1.698622 0.59366,-0.934242 4.11631,-2.759415 7.82811,-4.05592 3.71181,-1.296519 7.81166,-2.354306 9.11078,-2.350611 1.29914,0.0039 2.36208,-0.600718 2.36208,-1.343073 0,-0.742367 1.4826,-1.349748 3.2947,-1.349748 1.81208,0 3.67009,-0.607407 4.12889,-1.349748 0.45881,-0.742356 2.01311,-1.349748 3.45404,-1.349748 1.47896,0 2.61982,-0.921289 2.61982,-2.115588 0,-1.39315 0.80658,-1.866243 2.36205,-1.385388 1.29915,0.401599 7.22115,-0.200602 13.16005,-1.338172 5.93888,-1.137612 20.55366,-2.726491 32.47732,-3.530829 15.54329,-1.048555 26.81311,-1.049813 39.81752,-0.0039 9.97601,0.801915 21.78249,2.074926 26.23668,2.828896 4.45414,0.753998 10.52799,2.048754 13.49746,2.877252 2.96944,0.828483 6.91745,1.813531 8.77335,2.189 1.8559,0.375442 4.89285,1.315128 6.74874,2.08817 1.8559,0.773069 4.30879,1.866986 5.45089,2.430964 1.14208,0.563965 4.67684,1.464698 7.85501,2.001644 3.17819,0.536945 6.10489,1.826828 6.5038,2.866391 0.39893,1.039548 1.45031,1.890098 2.33643,1.890098 0.88612,0 3.24593,0.759227 5.24404,1.687178 1.99812,0.927951 3.63767,2.142725 3.64346,2.699497 0.006,0.556773 1.22531,1.012303 2.71003,1.012303 1.48472,0 2.69949,0.607392 2.69949,1.349754 0,0.742362 0.79655,1.349744 1.77012,1.349744 0.97355,0 3.074,1.214774 4.66769,2.699497 1.59364,1.484724 3.83402,2.699488 4.97861,2.699488 1.14456,0 2.08105,0.566462 2.08105,1.258792 0,0.692331 1.2314,1.649627 2.73648,2.127316 1.50507,0.477689 4.99752,2.9721 7.76104,5.543142 2.76352,2.57104 6.7598,6.01728 8.88065,7.65835 2.12085,1.64105 6.22071,5.16737 9.11079,7.83631 2.89008,2.66888 5.25472,5.24566 5.25472,5.72614 0,0.48048 1.36662,2.48594 3.03692,4.45662 1.67033,1.97065 4.26492,4.86035 5.76577,6.42155 1.50087,1.5612 4.20485,4.96442 6.00883,7.56266 1.80399,2.59828 3.62781,5.02782 4.05292,5.39901 0.42513,0.37117 2.27551,3.55995 4.11195,7.08615 1.83646,3.52622 3.79561,6.41131 4.35366,6.41131 0.55804,0 1.01463,1.21476 1.01463,2.69949 0,1.48473 0.60739,2.69949 1.34974,2.69949 0.74236,0 1.34975,1.21479 1.34975,2.6995 0,1.48471 0.60738,2.69948 1.34975,2.69948 0.74235,0 1.34974,1.21478 1.34974,2.6995 0,1.48472 0.52845,2.6995 1.17435,2.6995 0.64586,0 1.96753,2.88507 2.93699,6.4113 0.96946,3.5262 2.21774,6.72275 2.77393,7.10342 0.55618,0.38067 2.01868,4.63236 3.25002,9.44823 1.2313,4.81586 2.84518,12.40041 3.58638,16.85459 0.7412,4.45417 1.64931,13.86865 2.01803,20.92107 0.36868,7.05243 -0.0132,16.46692 -0.8478,20.92108 -0.835,4.45416 -2.19551,11.4391 -3.02336,15.5221 -0.82784,4.08296 -2.01477,8.00061 -2.63763,8.70584 -0.62285,0.70525 -1.13243,2.64341 -1.13243,4.30703 0,1.66361 -0.52406,3.34865 -1.1646,3.74452 -0.64053,0.39587 -1.93423,3.46865 -2.8749,6.82841 -0.94068,3.35975 -2.23877,6.10863 -2.88463,6.10863 -0.6459,0 -1.17435,0.8841 -1.17435,1.96467 0,1.08058 -1.51847,4.20225 -3.37437,6.93708 -1.8559,2.73484 -3.37436,5.79874 -3.37436,6.80869 0,1.00995 -0.52478,1.83626 -1.16619,1.83626 -0.6414,0 -2.9191,2.56828 -5.06156,5.70731 -2.14242,3.13902 -9.44692,11.33873 -16.23219,18.22158 -6.78525,6.88284 -13.01097,12.51427 -13.83491,12.51427 -0.82393,0 -1.49807,0.6074 -1.49807,1.34979 0,0.74232 -0.68799,1.34974 -1.52885,1.34974 -0.84089,0 -2.51117,1.06705 -3.71179,2.37126 -1.20064,1.30419 -4.00512,3.27724 -6.23221,4.3845 -2.22708,1.10732 -4.49839,2.62162 -5.04738,3.36519 -0.54896,0.74351 -0.71987,2.11113 -0.37979,3.03908 0.34009,0.92795 0.0301,1.68716 -0.68905,1.68716 -0.71905,0 -1.30738,-0.52316 -1.30738,-1.16257 0,-0.63941 -1.51847,-0.87231 -3.37437,-0.51751 -1.85591,0.35475 -3.37437,1.18162 -3.37437,1.83743 0,0.65583 -1.18459,1.19241 -2.63242,1.19241 -1.44784,0 -3.11813,0.76959 -3.7118,1.71024 -0.59365,0.94066 -4.11631,2.54306 -7.82811,3.56092 -3.71181,1.01786 -8.57089,2.14671 -10.79798,2.50856 -2.22709,0.36185 -4.88801,1.32937 -5.9132,2.15006 -1.1729,0.93896 -9.42951,1.50158 -22.27082,1.5176 -12.90562,0.0162 -22.88759,-0.64073 -27.1556,-1.7869 -3.7118,-0.99677 -7.9635,-2.31622 -9.44823,-2.93209 -1.48472,-0.61587 -5.73641,-2.18093 -9.44822,-3.47794 -3.7118,-1.29701 -7.70763,-3.16634 -8.87962,-4.15408 -1.17202,-0.98772 -2.84233,-1.79587 -3.71181,-1.79587 -0.8695,0 -1.58092,-0.60739 -1.58092,-1.34977 0,-0.74234 -0.91108,-1.34971 -2.02461,-1.34971 -1.11354,0 -2.02461,-0.6074 -2.02461,-1.34976 0,-0.74238 -0.86048,-1.34975 -1.91216,-1.34975 -1.05167,0 -2.11459,-0.45555 -2.36205,-1.01233 -0.24744,-0.55674 -2.47052,-2.6826 -4.94016,-4.7241 -2.46962,-2.0415 -5.11998,-3.71178 -5.88967,-3.71178 -0.90273,0 -1.06294,2.27553 -0.45136,6.41128 0.52144,3.52621 1.80516,7.37019 2.85275,8.54218 1.04757,1.172 1.90467,3.17532 1.90467,4.45177 0,1.27647 2.71516,10.30457 6.03367,20.0624 4.01306,11.80019 7.10625,18.67154 9.23654,20.51856 2.62141,2.27287 3.34768,4.53103 4.00049,12.43859 0.4387,5.31387 1.47126,10.78034 2.29455,12.14772 0.82331,1.3674 4.12933,10.68587 7.34671,20.70774 4.37651,13.6325 6.46238,18.34323 8.2822,18.7046 1.33786,0.26566 3.23463,1.28517 4.21508,2.26562 0.98047,0.98048 1.78263,2.73712 1.78263,3.90369 0,1.20963 -1.14126,2.12103 -2.65599,2.12103 -2.18583,0 -2.45806,0.53758 -1.53779,3.03691 0.86891,2.35989 2.58946,3.25252 7.71754,4.00387 3.62966,0.5318 15.71016,1.64196 26.84556,2.467 11.13543,0.82505 44.23795,2.03239 73.56121,2.68299 29.32325,0.65059 57.87038,1.75548 63.43809,2.45528 5.56771,0.69983 15.50557,2.26111 22.08415,3.4695 6.57858,1.20836 12.95614,2.70623 14.17234,3.32854 1.21623,0.62234 4.88907,1.54106 8.16188,2.04163 3.27282,0.50055 7.82822,1.88534 10.12309,3.07728 2.29489,1.19193 5.2272,2.68782 6.51626,3.32416 1.28906,0.63636 3.56676,1.15701 5.06155,1.15701 1.49478,0 2.71782,0.67325 2.71782,1.49609 0,0.92182 1.29521,1.17099 3.37436,0.64916 2.4901,-0.625 3.37438,-0.30962 3.37438,1.20343 0,1.12768 1.16415,2.05033 2.58701,2.05033 1.42285,0 2.80059,0.64075 3.06164,1.42389 0.26107,0.78317 2.73848,1.5424 5.50543,1.68719 3.44355,0.18022 5.03756,0.90204 5.05231,2.28791 0.0132,1.11355 2.59595,3.23017 5.74246,4.70366 3.14652,1.47348 6.03282,3.09903 6.414,3.61232 0.38116,0.51328 4.86772,4.01496 9.97014,7.78148 5.1024,3.76653 9.80147,6.84822 10.44236,6.84822 0.64091,0 1.16528,0.58546 1.16528,1.30101 0,0.71554 2.58138,3.7373 5.7364,6.71498 3.15504,2.9777 6.49567,5.42916 7.42363,5.44773 0.92793,0.0185 1.68716,0.93956 1.68716,2.04663 0,1.10709 1.82216,3.75424 4.04926,5.88257 2.22707,2.12832 4.05894,4.41129 4.0708,5.07327 0.0132,0.662 1.81076,3.23329 3.99753,5.71399 2.18679,2.48071 4.34388,5.66949 4.79353,7.08617 0.44962,1.41671 1.3103,2.5758 1.91256,2.5758 0.60226,0 1.84981,1.82218 2.77229,4.04925 0.92247,2.22709 2.21094,4.04922 2.86323,4.04922 0.6523,0 1.18598,1.21478 1.18598,2.69952 0,1.48473 0.45557,2.70422 1.01235,2.71 0.55677,0.006 1.77152,1.64537 2.69949,3.64351 0.92795,1.9981 1.68718,4.42289 1.68718,5.38843 0,0.96553 0.47477,1.75553 1.05505,1.75553 0.58031,0 1.89451,2.88508 2.92044,6.41131 1.02597,3.52619 2.35612,6.74019 2.95596,7.14218 0.5998,0.40199 2.03743,4.95738 3.19468,10.12311 1.15728,5.1657 3.06062,14.55498 4.2296,20.86505 1.34777,7.2749 1.8671,15.17693 1.41933,21.59595 -0.38838,5.56772 -1.38634,15.58193 -2.21768,22.25385 -1.03865,8.33565 -1.07333,12.2768 -0.11085,12.59762 0.77039,0.2568 1.40071,0.95282 1.40071,1.54675 0,0.59391 -1.21477,1.39751 -2.6995,1.78579 -1.80379,0.47169 -2.6995,1.84104 -2.6995,4.12698 0,1.8816 -0.60898,3.79746 -1.3533,4.25748 -0.74431,0.46 -2.5872,3.68462 -4.09528,7.16582 -1.5081,3.48119 -3.33252,7.24052 -4.05426,8.35406 -0.72178,1.11354 -1.71033,2.87041 -2.19681,3.90417 -0.48646,1.03372 -2.76032,3.99195 -5.05296,6.57384 -2.29265,2.5819 -6.66594,7.20259 -9.71845,10.26823 -3.05249,3.0656 -7.97234,7.69968 -10.933,10.29796 -2.96066,2.59825 -6.53703,5.49556 -7.94746,6.43843 -1.41048,0.94288 -4.47798,2.59604 -6.81668,3.67372 -2.3387,1.07768 -5.22379,2.931 -6.41131,4.11853 -1.18749,1.1875 -2.1591,3.81896 -2.1591,5.84769 0,2.0287 1.8171,6.55382 4.03799,10.05581 2.22091,3.50198 5.40969,6.95005 7.08617,7.66237 1.6765,0.71231 6.08512,3.1556 9.79691,5.42953 3.71181,2.27394 7.81166,4.48209 9.1108,4.90704 1.29913,0.42495 2.36205,1.30917 2.36205,1.96493 0,0.65578 0.91108,1.19232 2.02463,1.19232 1.11353,0 2.02462,0.60738 2.02462,1.34975 0,0.74235 0.91108,1.34976 2.02461,1.34976 1.11354,0 2.02462,0.60738 2.02462,1.34975 0,0.74234 0.75925,1.35047 1.68721,1.35138 0.92794,8.9e-4 3.45195,1.51935 5.6089,3.37436 2.15698,1.85502 4.45012,3.37272 5.09587,3.37272 0.64578,0 9.96579,8.81227 20.71106,19.58283 10.7453,10.77051 19.537,20.17968 19.537,20.90933 0,0.72951 1.74,3.00213 3.8668,5.05 2.1267,2.048 4.2935,5.09027 4.815,6.76053 0.5216,1.67026 1.5148,3.03696 2.2071,3.03696 0.6924,0 1.2588,0.91108 1.2588,2.02456 0,1.1136 0.6074,2.02469 1.3498,2.02469 0.7424,0 1.3497,0.91096 1.3497,2.02456 0,1.11359 0.5905,2.02468 1.3123,2.02468 0.7217,0 2.6187,3.03684 4.2154,6.74862 1.5968,3.71191 3.4358,6.74873 4.0868,6.74873 0.6509,0 1.1835,1.21479 1.1835,2.6995 0,1.48471 0.6074,2.6995 1.3498,2.6995 0.7423,0 1.3497,1.14988 1.3497,2.55513 0,1.40525 0.9008,2.90081 2.0019,3.32331 1.1098,0.42581 1.6566,1.66788 1.227,2.78731 -0.527,1.37347 0.3435,2.29992 2.7222,2.89698 1.9235,0.48277 3.4971,1.41928 3.4971,2.0811 0,0.66183 -0.565,1.2034 -1.2554,1.2034 -0.7548,0 -0.7899,1.62377 -0.088,4.0711 0.6421,2.23912 2.1183,5.97686 3.28,8.3059 1.162,2.32905 2.1127,5.60932 2.1127,7.28924 0,1.67994 0.5786,3.25696 1.2857,3.5045 0.7073,0.24742 2.2222,4.05614 3.3664,8.46378 1.1443,4.40764 2.5601,8.35557 3.1461,8.7733 0.586,0.41773 1.1564,2.27792 1.2675,4.13388 0.1113,1.85594 0.7822,6.10758 1.4912,9.44825 0.7089,3.34063 2.2314,11.23659 3.3833,17.54669 1.1519,6.3101 2.7383,15.8876 3.5253,21.2835 0.787,5.396 1.4309,12.7621 1.4309,16.3692 0,4.183 0.7333,7.167 2.0246,8.2386 1.1136,0.9242 2.0247,2.7701 2.0247,4.1021 0,1.332 0.7592,2.7281 1.6871,3.1026 0.928,0.3744 0.3206,0.7287 -1.3497,0.7873 -2.9712,0.1046 -3.0397,0.4648 -3.1638,16.6409 -0.071,9.094 -0.6357,22.0009 -1.258,28.6821 -0.6221,6.6814 -1.492,14.2736 -1.9331,16.872 -0.4412,2.5981 -1.4828,9.1469 -2.3147,14.5526 -0.832,5.4055 -2.0307,10.1487 -2.6641,10.5401 -0.6333,0.3913 -1.1514,2.5063 -1.1514,4.6997 0,2.1932 -0.5328,5.0423 -1.1841,6.3315 -0.6512,1.2892 -1.9041,4.618 -2.784,7.3975 -0.8801,2.7796 -1.2272,5.6568 -0.7717,6.3937 0.4555,0.7371 -0.445,2.707 -2.0013,4.3773 -1.5563,1.6704 -3.4841,5.6367 -4.2842,8.814 -0.7999,3.1771 -1.9101,6.0581 -2.467,6.4022 -0.5569,0.3443 -2.7115,4.13 -4.7879,8.413 -2.0764,4.283 -4.1728,8.091 -4.6586,8.462 -0.4857,0.3712 -2.3562,3.406 -4.1568,6.7438 -1.8006,3.3378 -4.6403,7.5832 -6.3106,9.4343 -1.6703,1.8512 -3.037,3.7452 -3.037,4.209 0,0.4637 -1.8124,2.8994 -4.0277,5.4127 -2.2152,2.5133 -4.0373,5.1302 -4.0492,5.8156 -0.013,0.6853 -6.0827,7.2146 -13.4909,14.5097 -7.4081,7.2951 -13.8571,13.2639 -14.3311,13.2639 -0.474,0 -3.2913,2.4294 -6.26075,5.3991 -2.96943,2.9691 -6.15366,5.3988 -7.07601,5.3988 -0.92237,0 -3.80084,2.003 -6.39659,4.4511 -2.59576,2.4481 -5.41396,4.2198 -6.26267,3.9368 -0.8487,-0.2828 -1.54309,0.1438 -1.54309,0.9479 0,0.8043 -0.91108,1.4623 -2.02462,1.4623 -1.11355,0 -2.02461,0.6074 -2.02461,1.3497 0,0.7422 -0.91108,1.3497 -2.02464,1.3497 -1.11354,0 -2.02462,0.6074 -2.02462,1.3498 0,0.7422 -1.21477,1.3498 -2.69948,1.3498 -1.48473,0 -2.6995,0.4591 -2.6995,1.0203 0,0.5609 -1.70806,1.7761 -3.7957,2.7003 -2.08763,0.9241 -4.97273,2.7426 -6.4113,4.0413 -1.43858,1.2986 -4.13407,2.5708 -5.98997,2.8275 -1.85589,0.2562 -3.57683,1.0153 -3.82427,1.687 -0.24746,0.6716 -1.29191,1.2209 -2.32103,1.2209 -1.02908,0 -4.03386,1.2147 -6.67728,2.6995 -2.64341,1.4848 -5.69885,2.6995 -6.7898,2.6995 -1.09094,0 -1.98356,0.6075 -1.98356,1.3497 0,0.7423 -1.10069,1.3498 -2.44596,1.3498 -1.34529,0 -4.96027,1.2148 -8.03329,2.6996 -3.07302,1.4847 -6.67958,2.7189 -8.01456,2.7424 -1.335,0.024 -3.5462,0.8909 -4.91378,1.927 -1.36762,1.0362 -5.01195,2.2661 -8.09852,2.733 -3.08655,0.467 -6.82668,1.3723 -8.31141,2.0116 -1.48474,0.6397 -7.72628,2.4273 -13.87017,3.9728 -6.14386,1.5456 -12.55179,2.8101 -14.23983,2.8101 -1.68803,0 -3.64617,0.5674 -4.35141,1.2609 -0.70526,0.6934 -8.2672,2.2524 -16.80434,3.4642 -8.53716,1.2116 -24.93659,3.0607 -36.44318,4.109 -11.50658,1.0483 -21.54765,1.9188 -22.31346,1.9348 -0.93326,0.02 -1.37832,17.4973 -1.34974,53.0067 0.0255,31.7014 -0.64596,61.1085 -1.67198,73.2236 -0.94302,11.1355 -2.30848,24.8017 -3.03429,30.3694 -0.72583,5.5677 -1.92246,13.7674 -2.65919,18.2216 -0.73676,4.4542 -1.91951,10.8316 -2.62833,14.1723 -0.70885,3.3406 -1.89971,8.5035 -2.64638,11.4729 -0.74666,2.9694 -1.95754,8.1321 -2.69087,11.4728 -0.73333,3.3406 -2.28149,8.7317 -3.44037,11.9799 -1.15886,3.2487 -2.10703,6.9017 -2.10703,8.1185 0,1.2168 -1.0985,4.3294 -2.44114,6.9166 -1.3426,2.5873 -3.29284,7.4374 -4.33386,10.778 -1.04099,3.3406 -6.07417,14.5772 -11.18482,24.9702 -5.11064,10.3931 -9.84164,19.099 -10.51334,19.3465 -0.67171,0.2475 -1.22126,1.614 -1.22126,3.0369 0,1.4228 -0.53372,2.5869 -1.18599,2.5869 -0.6523,0 -1.94076,1.8221 -2.86325,4.0492 -0.92249,2.2272 -2.10832,4.0492 -2.63516,4.0492 -0.52689,0 -1.8198,1.6705 -2.87319,3.7118 -1.05339,2.0417 -3.28189,5.1062 -4.95219,6.8104 -1.67031,1.7039 -3.03692,4.5891 -3.03692,6.4112 0,1.9012 -0.78601,3.3129 -1.8444,3.3129 -1.01441,0 -6.17719,4.2144 -11.47284,9.3647 -5.29566,5.1508 -9.62848,10.0099 -9.62848,10.798 0,0.7885 -0.51444,1.4334 -1.1432,1.4334 -0.62877,0 -2.41246,1.1007 -3.96377,2.4462 -1.55128,1.3454 -4.37744,3.6155 -6.28037,5.0444 -1.90291,1.4291 -3.45987,3.3169 -3.45987,4.1953 0,0.8785 -1.82216,1.9971 -4.04924,2.4863 -2.22707,0.4893 -4.04923,1.4486 -4.04923,2.1319 0,0.6834 -0.91109,1.2427 -2.02462,1.2427 -1.11355,0 -2.02463,0.6072 -2.02463,1.3498 0,0.7421 -0.91107,1.3496 -2.02461,1.3496 -1.11356,0 -2.02463,0.5119 -2.02463,1.1376 0,0.6255 -2.88508,2.5995 -6.4113,4.3866 -3.5262,1.7872 -6.61375,3.7047 -6.8612,4.2613 -0.24746,0.5569 -1.32943,1.0123 -2.40444,1.0123 -1.07498,0 -2.28671,0.8658 -2.69273,1.9238 -0.40603,1.0584 -3.12022,2.3264 -6.0315,2.8183 -2.9113,0.4918 -5.29326,1.4012 -5.29326,2.0207 0,0.6195 -2.2777,1.8233 -5.06155,2.6749 -2.78385,0.8518 -6.58,2.1845 -8.43591,2.9616 -1.85589,0.7773 -4.42903,1.9496 -5.71812,2.6056 -1.28906,0.6557 -3.53091,1.192 -4.98187,1.192 -1.45101,0 -3.01354,0.6076 -3.47235,1.3498 -0.4588,0.7425 -2.49903,1.3498 -4.53384,1.3498 -2.03478,0 -4.34745,0.648 -5.13924,1.4398 -0.79181,0.7916 -5.31682,2.2446 -10.05563,3.2282 -4.73878,0.9835 -9.12943,1.4791 -9.75699,1.1007 -0.62757,-0.3785 -2.44973,-0.083 -4.04924,0.6574 -1.59953,0.7399 -7.46363,2.1042 -13.03133,3.0321 -5.5677,0.9279 -25.00405,1.8618 -43.1919,2.0752 -18.18782,0.2138 -38.53526,-0.1272 -45.21651,-0.7582 z m 171.41703,-619.511 c -7.1e-4,-88.1661 -0.23325,-97.9337 -3.16511,-132.9489 -1.74038,-20.78561 -3.41114,-38.19114 -3.71277,-38.67922 -0.3016,-0.48806 -1.18394,-7.16977 -1.96072,-14.84828 -0.77681,-7.67864 -3.24893,-24.89399 -5.49367,-38.25651 -2.24471,-13.3624 -4.70885,-28.32896 -5.47582,-33.25884 -1.39455,-8.96336 -1.39455,-8.96336 -6.3149,-8.45742 -2.70621,0.27841 -14.03117,0.80488 -25.16658,1.17015 -11.13541,0.36542 -27.97932,1.07031 -37.43095,1.56658 -17.18475,0.90234 -17.18475,0.90234 -17.80278,5.09383 -0.33994,2.30521 -1.31751,8.74668 -2.17239,14.3144 -0.85489,5.56774 -1.40082,10.73045 -1.21314,11.47293 0.18767,0.74236 -0.27569,2.8681 -1.02967,4.72407 -0.75396,1.85594 -1.73453,6.56318 -2.17899,10.4605 -0.47396,4.15614 -0.2763,7.08622 0.47804,7.08622 0.70738,0 1.28615,0.60739 1.28615,1.34974 0,0.74236 -0.83344,1.34975 -1.8521,1.34975 -1.13608,0 -2.20469,2.21767 -2.76407,5.73633 -0.50154,3.15512 -2.15741,11.203 -3.67969,17.88421 -1.52226,6.68119 -5.7968,24.29547 -9.499,39.14267 -3.70217,14.84719 -7.33061,29.42449 -8.06317,32.39389 -0.73257,2.9695 -1.65822,7.373 -2.05696,9.7857 -0.39876,2.4127 -1.26596,4.3866 -1.92712,4.3866 -0.66112,0 -1.20207,1.3236 -1.20207,2.9413 0,1.6175 -1.30185,7.2359 -2.89302,12.4851 -1.59116,5.2491 -5.86386,18.6548 -9.4949,29.7902 -3.63103,11.1355 -7.18825,21.3009 -7.90495,22.5899 -0.7167,1.2892 -1.30307,3.4454 -1.30307,4.7917 0,1.3462 -0.53402,3.0249 -1.1867,3.73 -0.65267,0.7053 -1.90978,3.7118 -2.79353,6.6813 -0.88377,2.9695 -2.11137,6.6137 -2.72802,8.0985 -0.61668,1.4848 -2.3965,5.5779 -3.9552,9.096 -1.55871,3.5183 -2.83401,6.8965 -2.83401,7.5077 0,0.6109 -1.21477,3.6251 -2.6995,6.6981 -1.48472,3.073 -2.69951,6.4771 -2.69951,7.5647 0,1.0876 -0.61844,2.1834 -1.37435,2.4353 -0.75587,0.2521 -1.74561,3.5931 -2.19937,7.4247 -0.60153,5.0786 -1.47026,7.1348 -3.20655,7.5889 -1.33023,0.3478 -2.78997,2.4825 -3.30684,4.8357 -0.50894,2.3174 -1.48447,4.2133 -2.16783,4.2133 -0.68336,0 -1.2425,1.2146 -1.2425,2.6994 0,1.4847 -0.60741,2.6994 -1.34976,2.6994 -0.74238,0 -1.34976,1.2147 -1.34976,2.6996 0,1.4847 -0.60738,2.6993 -1.34974,2.6993 -0.74233,0 -1.34975,0.79 -1.34975,1.7556 0,0.9655 -0.75923,3.3904 -1.68718,5.3885 -0.92795,1.9983 -2.14272,3.6377 -2.69949,3.6434 -0.55678,0 -1.01231,1.1896 -1.01231,2.6306 0,1.4406 -0.61895,3.0022 -1.37541,3.4697 -0.75648,0.4675 -2.88233,3.8238 -4.72413,7.4584 -1.84177,3.6346 -3.34869,7.2131 -3.34869,7.9523 0,0.7672 5.35719,1.5105 12.48516,1.732 6.86683,0.2136 55.60956,0.3882 108.31717,0.3882 95.83202,0 95.83202,0 95.83122,-95.1572 z m 143.74885,72.8863 c 0,-0.7422 0.75923,-1.3561 1.68717,-1.3638 0.92795,0 5.3315,-2.7425 9.78568,-6.0773 4.45415,-3.3344 10.45765,-8.0353 13.3411,-10.4462 2.88345,-2.411 8.95731,-8.2299 13.49747,-12.931 4.54015,-4.7013 8.81362,-9.5602 9.49661,-10.798 0.68296,-1.2377 2.23135,-3.1615 3.44088,-4.2749 1.20952,-1.1135 5.33096,-6.2764 9.15877,-11.4731 3.82779,-5.1965 7.60292,-10.1911 8.38919,-11.0995 0.78627,-0.9083 2.0266,-3.0342 2.7563,-4.7243 0.72969,-1.6899 2.08738,-4.2873 3.01709,-5.772 0.92975,-1.4848 2.11418,-3.0194 2.63214,-3.4104 0.51793,-0.3911 4.0104,-6.8744 7.76102,-14.4074 3.75065,-7.5331 6.81934,-14.6538 6.81934,-15.8236 0,-1.1698 0.47479,-2.127 1.05509,-2.127 0.58028,0 1.88335,-2.885 2.89568,-6.4113 1.01234,-3.5262 2.24549,-7.0187 2.7403,-7.761 0.49481,-0.7423 1.66359,-4.6904 2.59729,-8.7733 0.93369,-4.083 2.208,-8.6384 2.83179,-10.1232 0.62379,-1.4847 2.42386,-10.6094 4.0002,-20.2771 2.47011,-15.1494 2.76789,-21.2093 2.15547,-43.8668 -0.39082,-14.45895 -1.2985,-30.23714 -2.01707,-35.06252 -0.71857,-4.82524 -1.84815,-11.81027 -2.51016,-15.52204 -0.662,-3.71178 -2.80517,-11.3924 -4.7626,-17.06807 -1.95743,-5.67554 -6.07522,-15.09 -9.15066,-20.92103 -3.07546,-5.83091 -6.4224,-11.08752 -7.43763,-11.68114 -1.01527,-0.59361 -1.84593,-1.85158 -1.84593,-2.79552 0,-0.9438 -2.6225,-4.40606 -5.82777,-7.69387 -3.2053,-3.28794 -7.73528,-7.6303 -10.06667,-9.64982 -2.33136,-2.01965 -5.78272,-4.05943 -7.66966,-4.53306 -2.129,-0.53428 -3.43083,-0.29337 -3.43083,0.63493 0,0.82289 -0.95444,1.49611 -2.12103,1.49611 -1.16655,0 -2.98872,-0.86765 -4.04925,-1.92814 -1.0605,-1.06061 -1.9282,-2.59407 -1.9282,-3.40782 0,-0.81373 -1.59081,-2.08441 -3.53514,-2.82359 -2.10494,-0.80037 -19.85217,-1.26551 -43.86678,-1.14975 -36.66372,0.17655 -40.33161,0.39878 -40.33161,2.4436 0,1.23718 0.84096,5.56576 1.86879,9.6191 1.02786,4.05335 2.27287,12.53249 2.76671,18.84256 0.49385,6.3101 1.44154,13.29499 2.10596,15.52206 0.66444,2.2272 2.19778,11.64166 3.40742,20.92117 1.20966,9.2795 2.76822,20.81984 3.46351,25.64508 0.69526,4.82538 1.90589,13.93627 2.69025,20.24623 0.78436,6.31005 1.97259,16.33193 2.64054,22.27093 0.66796,5.9388 1.87143,17.1755 2.67442,24.9703 0.80297,7.7948 2.04857,19.9425 2.76798,26.9949 0.71939,7.0524 1.89378,20.1113 2.60966,29.0196 0.71592,8.9084 1.62258,20.145 2.01483,24.9702 0.39224,4.8254 1.3257,17.2768 2.07435,27.67 0.74868,10.3929 1.67709,24.9702 2.06321,32.3938 0.3861,7.4236 1.04742,20.3306 1.46956,28.6821 0.69381,13.7258 1.01295,15.1847 3.3214,15.1847 1.40459,0 2.55382,-0.6073 2.55382,-1.3498 z M 577.12054,755.24481 c 1.1191,-0.71208 0.0308,-5.58734 -3.83707,-17.1886 -2.96959,-8.90702 -5.95023,-16.77158 -6.6237,-17.47683 -0.67348,-0.70524 -1.22448,-2.55777 -1.22448,-4.11673 0,-1.55895 -0.48485,-3.41149 -1.07743,-4.11673 -0.5926,-0.70523 -2.19689,-4.62288 -3.5651,-8.70587 -1.36823,-4.08297 -3.57223,-9.87422 -4.89778,-12.86941 -1.32557,-2.9952 -2.82547,-7.1008 -3.33314,-9.12355 -0.50771,-2.02276 -1.46318,-4.01152 -2.12329,-4.41952 -0.66014,-0.40797 -1.20022,-1.599 -1.20022,-2.64672 0,-1.04774 -1.52041,-5.22896 -3.37873,-9.29161 -1.8583,-4.06267 -3.98415,-7.76082 -4.72413,-8.21816 -0.73993,-0.45732 -1.34539,-2.01042 -1.34539,-3.45131 0,-1.44094 -0.60739,-2.61985 -1.34974,-2.61985 -0.74233,0 -1.35348,-1.36662 -1.35805,-3.03693 -0.003,-1.6703 -0.91567,-4.77668 -2.02463,-6.90302 -1.10896,-2.12636 -2.0163,-4.40356 -2.0163,-5.06047 0,-0.65692 -2.42955,-6.20322 -5.39899,-12.3251 -2.96945,-6.12191 -5.39899,-11.63224 -5.39899,-12.24523 0,-0.61296 -0.86769,-1.98218 -1.92821,-3.04269 -1.58701,-1.58702 -9.22969,-1.92822 -43.19188,-1.92822 -26.60931,0 -41.26368,0.47937 -41.26368,1.34975 0,0.74239 0.53369,1.34975 1.18598,1.34975 0.65228,0 1.94075,1.82215 2.86324,4.04925 0.92248,2.22707 2.16033,4.04923 2.75078,4.04923 0.59042,0 1.4222,-0.75923 1.8484,-1.68718 0.42619,-0.92795 0.43588,-0.32057 0.0214,1.34976 -0.41435,1.6703 -0.14608,3.03692 0.59636,3.03692 0.74235,0 1.68766,1.06291 2.10071,2.36204 0.41299,1.29916 2.12422,3.88055 3.80274,5.73644 1.67851,1.85591 3.92247,5.06107 4.98658,7.1226 1.06412,2.06152 3.34181,4.10139 5.06157,4.533 1.71973,0.43163 3.12679,1.32631 3.12679,1.9882 0,0.66187 1.21478,1.20341 2.69948,1.20341 1.48472,0 2.6995,0.6074 2.6995,1.34977 0,0.74234 -0.685,1.34974 -1.52226,1.34974 -1.03325,0 -1.22967,1.82973 -0.61144,5.69595 0.50096,3.13281 1.33782,6.01788 1.85971,6.41131 0.52187,0.39345 2.58013,3.75226 4.57395,7.46407 2.2618,4.21076 4.67291,6.91094 6.41131,7.18004 1.53241,0.23722 2.7862,0.94584 2.7862,1.57472 0,0.62884 -0.75924,1.39966 -1.6872,1.71288 -1.28182,0.43267 -1.12492,1.7568 0.65305,5.51146 1.28712,2.71808 3.17652,4.94197 4.19867,4.94197 1.21769,0 2.12746,2.27134 2.63865,6.58753 0.4291,3.62317 1.98991,9.24147 3.46844,12.48519 1.47853,3.24367 4.02497,10.14931 5.65877,15.34585 1.63379,5.19652 3.45245,10.66298 4.04148,12.14771 0.58906,1.48471 1.46937,4.52165 1.95624,6.74873 0.4869,2.22708 1.20384,6.32693 1.5932,9.11079 0.38936,2.78386 0.79598,5.17616 0.90361,5.31626 0.10749,0.14013 15.3803,0.62106 33.93933,1.06887 18.559,0.44779 34.04736,0.93128 34.41852,1.07438 0.37121,0.1432 1.37785,-0.18711 2.23706,-0.73384 z M 475.00226,652.34967 c 0,-0.74236 0.60737,-1.34975 1.34973,-1.34975 0.74238,0 1.34975,0.60739 1.34975,1.34975 0,0.74236 -0.60737,1.34974 -1.34975,1.34974 -0.74236,0 -1.34973,-0.60738 -1.34973,-1.34974 z m 249.02826,97.77673 c 2.22708,-0.52108 4.96033,-1.69701 6.07386,-2.6132 1.11354,-0.91619 4.44772,-2.03707 7.40924,-2.49085 2.96154,-0.45375 10.40204,-3.35714 16.5344,-6.45192 6.13238,-3.09479 11.14979,-6.14631 11.14979,-6.78117 0,-0.63486 0.64306,-1.15426 1.42903,-1.15426 0.78597,0 4.1266,-2.52837 7.42361,-5.61858 3.297,-3.09021 5.99457,-6.44989 5.99457,-7.46597 0,-1.01607 0.85546,-2.17567 1.90103,-2.57689 1.04559,-0.40123 2.62534,-2.65987 3.51058,-5.0192 0.88527,-2.3593 2.14416,-5.50446 2.79754,-6.98919 0.65337,-1.48473 1.80227,-6.6475 2.55308,-11.47285 0.7508,-4.82532 1.36969,-11.61505 1.3753,-15.08824 0.006,-3.47319 -0.79832,-7.12339 -1.78651,-8.11157 -0.98819,-0.98821 -2.2113,-4.82776 -2.71806,-8.53234 -0.50669,-3.7046 -1.52033,-6.93808 -2.25251,-7.18554 -0.73217,-0.24746 -1.33121,-1.61408 -1.33121,-3.03693 0,-1.42286 -0.45554,-2.60334 -1.0123,-2.62333 -0.55677,-0.02 -2.48591,-2.42557 -4.28698,-5.34579 -1.80107,-2.92022 -4.07878,-5.61809 -5.06156,-5.99519 -0.98278,-0.37714 -1.78688,-0.0974 -1.78688,0.62167 0,0.71906 -0.6483,1.30739 -1.44071,1.30739 -0.79664,0 -1.08008,-1.13622 -0.63401,-2.54157 0.55487,-1.74828 -0.58478,-3.97435 -3.65133,-7.13206 -2.45185,-2.52475 -5.94602,-5.63277 -7.76477,-6.90665 -1.81875,-1.27391 -4.99381,-2.31619 -7.05573,-2.31619 -2.81903,0 -3.74888,-0.65384 -3.74888,-2.63615 0,-1.67863 -1.69134,-3.43877 -4.65627,-4.84572 -2.56095,-1.21523 -5.23055,-1.85462 -5.93243,-1.42082 -0.70189,0.43381 -1.63708,-0.15182 -2.0782,-1.30131 -0.69708,-1.81663 -4.67426,-2.03632 -30.40107,-1.67944 -16.27947,0.22585 -30.00781,0.82063 -30.50739,1.32177 -0.4996,0.50114 0.30633,4.44914 1.79092,8.77335 1.48461,4.32421 3.47334,11.20282 4.41941,15.28581 0.94605,4.08297 2.21666,8.00063 2.82352,8.70588 0.60688,0.70524 1.10339,2.48427 1.10339,3.95338 0,1.46914 0.56624,4.53645 1.25829,6.81622 0.69206,2.2798 1.96604,6.87832 2.83104,10.21895 0.86503,3.34061 2.12097,7.12854 2.79097,8.41761 0.67001,1.28905 1.21818,4.13829 1.21818,6.33161 0,2.19336 0.6074,4.3633 1.34976,4.82211 0.74236,0.45879 1.34974,2.88834 1.34974,5.39898 0,2.51064 0.60739,4.94017 1.34975,5.39898 0.74236,0.45881 1.34975,2.12186 1.34975,3.69566 0,1.57378 0.56624,4.72669 1.2583,7.00649 0.69205,2.2798 1.95693,6.87832 2.81084,10.21894 0.85391,3.34063 2.08319,8.19973 2.73171,10.79797 0.64851,2.59828 1.87919,7.9355 2.7348,11.86058 0.85565,3.92502 2.54719,8.12792 3.75901,9.33975 1.52818,1.52815 1.71324,2.36667 0.60401,2.73643 -0.8796,0.29321 -1.24312,1.46128 -0.80781,2.59572 0.5646,1.47135 1.99386,1.86086 4.98573,1.35885 2.30683,-0.38707 6.01638,-1.13012 8.24346,-1.65118 z m -551.37154,520.4073 c 0,-0.7423 0.60739,-1.3498 1.34974,-1.3498 0.74237,0 1.34975,0.6075 1.34975,1.3498 0,0.7426 -0.60738,1.3498 -1.34975,1.3498 -0.74235,0 -1.34974,-0.6072 -1.34974,-1.3498 z m 21.59594,-121.4772 c 0,-0.7424 0.60739,-1.3497 1.34975,-1.3497 0.74235,0 1.34974,0.6073 1.34974,1.3497 0,0.7423 -0.60739,1.3498 -1.34974,1.3498 -0.74236,0 -1.34975,-0.6075 -1.34975,-1.3498 z m -8.09848,-8.0985 c 0,-0.7423 0.60739,-1.3498 1.34976,-1.3498 0.74235,0 1.34974,0.6075 1.34974,1.3498 0,0.7424 -0.60739,1.3498 -1.34974,1.3498 -0.74237,0 -1.34976,-0.6074 -1.34976,-1.3498 z m 758.5577,-340.13617 c 0,-0.74234 0.60737,-1.34974 1.34972,-1.34974 0.74237,0 1.34974,0.6074 1.34974,1.34974 0,0.74236 -0.60737,1.34974 -1.34974,1.34974 -0.74235,0 -1.34972,-0.60738 -1.34972,-1.34974 z M 167.25999,520.07447 c 0,-0.74237 0.60738,-1.34975 1.34975,-1.34975 0.74236,0 1.34975,0.60738 1.34975,1.34975 0,0.74236 -0.60739,1.34974 -1.34975,1.34974 -0.74237,0 -1.34975,-0.60738 -1.34975,-1.34974 z"
       id="path179" />
  </g>
</svg>
